# xmcd
#
# Track frame offsets: 
#        150
#        9648
#        25007
#        41050
#        57298
#        72157
#        88941
#        109317
#        122617
#        137500
#        155592
#        188971
#
# Disc length: 2706 seconds
#
# Revision: 0
# Processed by: cddbd v1.5.2PL0 Copyright (c) Steve Scherf et al.
# Submitted via: ExactAudioCopyFreeDBPlugin 1.0
#
DISCID=a20a900c
DTITLE=Eric Carmen - Change Of Heart
DYEAR=1978
DGENRE=Pop
TTITLE0=Desperate Fools Overture
TTITLE1=Haven't We Come A Long Way
TTITLE2=End Of The World
TTITLE3=Heaven Can Wait
TTITLE4=Baby I Need Your Lovin'
TTITLE5=Change Of Heart
TTITLE6=Hey Deanie
TTITLE7=Someday
TTITLE8=Desperate Fools
TTITLE9=Marathon Man (Live) [Bonus Track]
TTITLE10=All By Myself (Live) [Bonus Track]
TTITLE11=Change Of Heart (Demo) [Bonus Track]
EXTD=
EXTT0=
EXTT1=
EXTT2=
EXTT3=
EXTT4=
EXTT5=
EXTT6=
EXTT7=
EXTT8=
EXTT9=
EXTT10=
EXTT11=
PLAYORDER=
